<svg width="923" height="626" viewBox="0 0 923 626" fill="none" xmlns="http://www.w3.org/2000/svg">
<g clip-path="url(#clip0_4_2)">
<g filter="url(#filter0_d_4_2)">
<path d="M679.137 461H117.863C112.862 460.995 108.068 459.383 104.531 456.517C100.995 453.651 99.0058 449.765 99 445.711V75.2888C99.0058 71.2354 100.995 67.3494 104.531 64.4832C108.068 61.617 112.862 60.0047 117.863 60H679.137C684.138 60.0047 688.932 61.617 692.469 64.4832C696.005 67.3494 697.994 71.2354 698 75.2888V445.711C697.994 449.765 696.005 453.651 692.469 456.517C688.932 459.383 684.138 460.995 679.137 461Z" fill="#2C2C2C"/>
</g>
<path d="M876.557 575.881C875.167 574.26 873.279 573.057 871.138 572.429C868.996 571.801 866.698 571.776 864.541 572.357L864.069 572.486L859.837 587.643C859.204 585.384 857.847 580.284 856.992 575.293L856.918 574.88L856.498 575.049C852.074 576.843 847.916 579.143 844.121 581.894C837.397 586.842 831.929 593.074 828.096 600.156C824.263 607.239 822.157 615.003 821.924 622.907L821.917 623.198L821.909 623.381L822.469 623.198L834.493 619.255C839.816 619.686 845.177 619.02 850.184 617.307C855.192 615.594 859.719 612.877 863.435 609.354C868.293 604.653 871.625 598.606 874.847 592.756C875.79 591.052 876.756 589.293 877.744 587.602C878.846 585.764 879.322 583.664 879.11 581.575C878.899 579.485 878.009 577.502 876.557 575.881V575.881Z" fill="#F2F2F2"/>
<path d="M569.511 189.36C569.753 190.508 570.265 191.593 571.013 192.539C571.761 193.485 572.725 194.269 573.839 194.836C574.953 195.403 576.188 195.739 577.459 195.82C578.73 195.901 580.004 195.726 581.193 195.307L617.127 233.659L621.677 219.501L586.051 184.413C585.151 182.627 583.568 181.206 581.602 180.42C579.636 179.634 577.424 179.536 575.386 180.146C573.347 180.756 571.623 182.031 570.54 183.729C569.457 185.427 569.091 187.431 569.511 189.36L569.511 189.36Z" fill="#FFB8B8"/>
<path d="M714.335 614.03H702.443L696.786 571.946H714.337L714.335 614.03Z" fill="#FFB6B6"/>
<path d="M714.017 610.466L701.32 605.728L700.957 605.591L693.947 610.466C689.988 610.467 686.192 611.91 683.394 614.478C680.595 617.045 679.022 620.528 679.021 624.159V624.604H717.364V610.466H714.017Z" fill="#2F2E41"/>
<path d="M799.168 614.03H787.276L781.619 571.946H799.17L799.168 614.03Z" fill="#FFB6B6"/>
<path d="M798.851 610.466L786.154 605.728L785.79 605.591L778.78 610.466C774.822 610.467 771.026 611.91 768.227 614.478C765.428 617.045 763.855 620.528 763.855 624.159V624.604H802.198V610.466H798.851Z" fill="#2F2E41"/>
<path d="M771.102 362.726C771.102 362.726 786.017 376.963 786.017 388.661C786.017 400.359 782.288 416.421 786.017 419.936C789.746 423.452 794.407 427.728 788.814 432.86C783.221 437.992 780.424 440.558 784.153 443.979C787.882 447.4 786.017 507.271 786.017 507.271L805.594 587.668H780.93L749.66 507.271L741.27 440.558L714.136 504.705L717.132 588.358L691.348 587.668L680.675 498.718C680.675 498.718 696.523 414.104 693.726 411.936C690.93 409.767 693.726 405.39 693.726 405.39L701.184 372.99L771.102 362.726Z" fill="#2F2E41"/>
<path d="M741.898 261.785C741.898 261.785 746.97 243.449 723.604 238.192C700.238 232.935 633.447 226.181 633.447 226.181L599.693 193.319L588.255 208.559L626.095 251.7L715.753 268.596L741.898 261.785Z" fill="#3F3D56"/>
<path d="M593.814 207.435C594.862 206.189 595.682 204.795 596.243 203.308L601.083 192.395L599.827 192.347C598.088 192.046 596.3 192.087 594.579 192.465C592.858 192.843 591.244 193.551 589.842 194.541C588.441 195.532 587.283 196.783 586.445 198.213C585.607 199.642 585.108 201.218 584.98 202.837C584.821 204.238 585.096 205.651 585.771 206.915C586.115 207.542 586.616 208.085 587.233 208.5C587.85 208.915 588.565 209.19 589.32 209.303C590.177 209.345 591.033 209.197 591.815 208.872C592.597 208.547 593.283 208.054 593.814 207.435V207.435Z" fill="#E6E6E6"/>
<path d="M696.424 377.359L693.627 395.959C693.627 395.959 699.221 401.471 702.017 400.782C704.814 400.093 715.069 396.083 715.069 396.083C715.069 396.083 727.188 402.159 733.713 402.848C740.239 403.537 774.731 399.404 775.664 397.337C776.596 395.27 787.431 387.18 787.431 387.18L783.122 363.581L696.424 377.359Z" fill="#E6E6E6"/>
<path d="M787.251 312.29C787.251 312.29 784.884 330.225 786.748 331.876C788.612 333.518 784.883 343.91 781.155 350.752C777.426 357.594 783.951 358.45 783.951 363.581C783.951 368.713 786.748 387.53 786.748 387.53C786.748 387.53 757.849 389.24 753.188 384.964C748.526 380.687 741.068 384.108 730.814 393.517C720.559 402.925 698.288 395.227 693.627 390.951C688.966 386.674 697.253 371.279 700.05 368.294C702.847 365.309 697.356 368.764 694.559 359.305C691.763 349.845 697.253 350.752 701.915 346.476C706.576 342.199 701.915 334.501 698.186 326.804C694.457 319.106 697.253 261.802 697.253 248.117C697.253 234.432 717.763 232.722 717.763 232.722L725.882 223.356L731.849 216.471L743.539 216.043L743.846 216.035L755.154 215.616L760.645 221.483L772.764 234.432L786.748 236.998C797.935 240.419 795.138 261.802 795.138 261.802L787.251 312.29Z" fill="#3F3D56"/>
<path d="M742.962 212.333C756.197 212.333 766.925 202.49 766.925 190.348C766.925 178.205 756.197 168.362 742.962 168.362C729.728 168.362 718.999 178.205 718.999 190.348C718.999 202.49 729.728 212.333 742.962 212.333Z" fill="#FFB6B6"/>
<path d="M770.747 182.952C764.156 179.243 765 169.547 758.65 166.161C755.493 164.491 751.944 163.546 748.304 163.406C744.664 163.266 741.041 163.934 737.743 165.355C733.27 163.599 727.911 165 724.333 168.171C720.754 171.341 718.817 176.018 718.246 180.722C717.834 185.448 718.204 190.204 719.343 194.828C719.699 192.97 720.054 191.112 720.41 189.254L739.301 185.466C737.628 186.845 735.956 188.223 734.284 189.602C742.839 191.389 751.816 190.101 759.369 186.002C767.593 189.385 766.102 196.981 758.883 207.063C761.68 211.339 778.257 187.177 770.747 182.952Z" fill="#2F2E41"/>
<path d="M760.645 221.483C760.592 221.523 760.536 221.56 760.478 221.594C758.503 222.675 756.242 223.237 753.943 223.219C750.933 223.45 747.945 222.59 745.618 220.824C744.397 219.764 739.54 222.005 736.351 223.245C733.007 224.517 729.258 224.556 725.882 223.356L731.849 216.471L741.682 214.471H744.137L755.155 215.616L760.645 221.483Z" fill="#E6E6E6"/>
<path d="M921.546 625.654L587.98 626C587.788 626.001 587.598 625.967 587.42 625.901C587.242 625.834 587.081 625.736 586.944 625.612C586.808 625.488 586.699 625.341 586.625 625.179C586.551 625.016 586.512 624.842 586.511 624.666C586.51 624.49 586.547 624.315 586.619 624.152C586.692 623.989 586.799 623.841 586.934 623.716C587.069 623.591 587.229 623.491 587.406 623.423C587.583 623.355 587.773 623.319 587.965 623.318H587.98L921.546 622.972C921.933 622.974 922.302 623.116 922.575 623.367C922.847 623.618 923 623.958 923 624.313C923 624.667 922.847 625.007 922.575 625.259C922.302 625.51 921.933 625.652 921.546 625.654V625.654Z" fill="#CACACA"/>
<path d="M884.446 302.244C878.311 298.428 870.858 297.011 863.573 296.529C855.292 296.116 846.993 296.125 838.714 296.556C830.114 296.869 821.531 297.44 812.966 298.269C804.412 299.1 795.895 300.188 787.414 301.534C779.82 302.618 772.306 304.127 764.913 306.052C757.915 307.829 751.323 310.749 745.455 314.673C740.304 318.227 736.342 323.036 734.021 328.553C731.742 333.727 731.355 339.439 732.917 344.833C733.749 347.452 735.175 349.882 737.1 351.962C739.325 354.244 741.96 356.159 744.892 357.622C750.978 360.811 757.873 362.727 763.378 366.809C764.829 367.877 766.152 369.084 767.324 370.41C768.121 371.435 769.221 372.229 770.495 372.698C771.702 373.085 773.007 373.135 774.245 372.843C775.483 372.55 776.599 371.928 777.453 371.054C778.555 369.67 779.474 368.171 780.191 366.587L783.095 361.447C783.289 360.998 783.532 360.567 783.821 360.163C784.038 359.924 783.649 360.168 783.723 360.105C783.764 360.07 783.848 360.071 783.895 360.044C784.135 359.934 784.386 359.846 784.645 359.78C787.331 358.841 790.029 357.931 792.739 357.05C802.742 353.779 812.865 350.764 823.149 348.322C828.44 347.02 833.807 345.99 839.224 345.237C846.24 344.32 853.362 344.426 860.41 343.8C867.998 343.125 875.828 341.716 882.335 337.882C887.715 334.883 891.86 330.331 894.121 324.94C895.101 322.37 895.437 319.631 895.104 316.926C894.259 310.806 889.9 305.637 884.446 302.244Z" fill="#E6E6E6"/>
<path d="M871.89 305.683C866.346 302.235 859.611 300.954 853.027 300.519C845.545 300.145 838.045 300.153 830.563 300.543C822.791 300.825 815.035 301.341 807.295 302.091C799.566 302.841 791.869 303.825 784.205 305.041C777.343 306.021 770.552 307.385 763.871 309.124C757.547 310.73 751.591 313.369 746.288 316.915C741.633 320.127 738.053 324.472 735.955 329.457C733.896 334.133 733.546 339.295 734.957 344.169C735.71 346.536 736.997 348.732 738.737 350.612C740.748 352.674 743.13 354.404 745.779 355.727C751.279 358.608 757.51 360.34 762.484 364.029C763.796 364.994 764.991 366.084 766.051 367.282C766.77 368.209 767.764 368.927 768.915 369.35C770.006 369.7 771.185 369.745 772.304 369.481C773.423 369.217 774.432 368.654 775.203 367.865C776.199 366.614 777.03 365.259 777.677 363.828L780.302 359.183C780.477 358.777 780.697 358.388 780.958 358.022C781.154 357.807 780.803 358.027 780.87 357.97C780.907 357.939 780.983 357.94 781.025 357.915C781.242 357.816 781.469 357.736 781.702 357.677C784.13 356.828 786.568 356.005 789.017 355.209C798.056 352.254 807.205 349.529 816.498 347.323C821.279 346.146 826.129 345.215 831.024 344.534C837.364 343.706 843.8 343.802 850.169 343.236C857.026 342.626 864.102 341.352 869.982 337.888C874.845 335.177 878.59 331.064 880.633 326.192C881.519 323.87 881.822 321.395 881.522 318.951C880.758 313.42 876.819 308.749 871.89 305.683Z" fill="white"/>
<path d="M860.278 311.911L769.935 327.198C769.676 327.243 769.411 327.241 769.153 327.192C768.896 327.143 768.651 327.048 768.434 326.912C768.217 326.776 768.031 326.602 767.887 326.4C767.743 326.198 767.644 325.972 767.595 325.735C767.547 325.498 767.55 325.254 767.604 325.018C767.659 324.782 767.763 324.558 767.912 324.359C768.061 324.16 768.251 323.99 768.472 323.859C768.692 323.727 768.939 323.637 769.198 323.593L769.209 323.591L859.553 308.304C859.811 308.26 860.076 308.263 860.333 308.314C860.589 308.364 860.833 308.46 861.049 308.597C861.265 308.733 861.45 308.908 861.593 309.11C861.736 309.312 861.833 309.538 861.881 309.775C861.929 310.011 861.925 310.255 861.87 310.49C861.815 310.726 861.711 310.949 861.562 311.147C861.413 311.346 861.223 311.515 861.003 311.646C860.782 311.777 860.536 311.867 860.278 311.911V311.911Z" fill="#E6E6E6"/>
<path d="M862.503 322.98L772.16 338.268C771.901 338.313 771.636 338.311 771.378 338.262C771.121 338.213 770.877 338.117 770.659 337.981C770.442 337.845 770.256 337.672 770.112 337.47C769.969 337.268 769.87 337.042 769.821 336.804C769.773 336.567 769.776 336.324 769.83 336.088C769.884 335.852 769.989 335.628 770.138 335.429C770.286 335.23 770.477 335.06 770.697 334.928C770.918 334.797 771.164 334.707 771.423 334.663L771.435 334.661L861.778 319.373C862.036 319.33 862.301 319.333 862.558 319.383C862.815 319.434 863.058 319.53 863.274 319.666C863.491 319.803 863.675 319.977 863.818 320.179C863.961 320.382 864.059 320.607 864.106 320.844C864.154 321.081 864.15 321.324 864.095 321.56C864.041 321.795 863.936 322.019 863.787 322.217C863.638 322.415 863.448 322.585 863.228 322.716C863.008 322.847 862.761 322.937 862.503 322.98V322.98Z" fill="#E6E6E6"/>
<path d="M784.913 347.556L774.385 349.337C773.865 349.424 773.328 349.317 772.893 349.041C772.458 348.765 772.16 348.342 772.064 347.865C771.968 347.388 772.082 346.895 772.381 346.495C772.68 346.095 773.14 345.82 773.66 345.73L784.188 343.949C784.709 343.862 785.246 343.968 785.681 344.244C786.117 344.52 786.415 344.943 786.511 345.421C786.607 345.898 786.493 346.391 786.193 346.791C785.894 347.191 785.434 347.466 784.913 347.556V347.556Z" fill="#E6E6E6"/>
<path d="M777.286 393.576C781.9 392.795 784.951 388.73 784.1 384.497C783.249 380.263 778.818 377.465 774.204 378.245C769.59 379.026 766.539 383.091 767.39 387.324C768.241 391.558 772.672 394.357 777.286 393.576Z" fill="#D1D3D4"/>
<path d="M790.556 390.006C791.654 389.413 792.597 388.607 793.318 387.645C794.04 386.682 794.523 385.585 794.733 384.433C794.943 383.28 794.875 382.1 794.533 380.974C794.192 379.848 793.586 378.805 792.758 377.917L820.137 334.021L804.073 334.822L779.943 377.359C778.41 378.735 777.48 380.579 777.329 382.541C777.179 384.504 777.819 386.449 779.127 388.007C780.435 389.566 782.321 390.631 784.427 390.999C786.534 391.367 788.714 391.014 790.556 390.006H790.556Z" fill="#FFB8B8"/>
<path d="M759.717 236.143C759.717 236.143 788.715 227.59 796.173 248.117C803.631 268.644 828.702 324.238 828.702 324.238L801.766 374.7L789.647 362.726L802.599 327.659L765.31 276.342L759.717 236.143Z" fill="#3F3D56"/>
<path d="M802.69 369.547C801.817 368.192 800.71 366.976 799.412 365.947L790.159 357.777L789.644 358.83C788.696 360.2 788.074 361.739 787.819 363.346C787.564 364.952 787.682 366.59 788.165 368.151C788.648 369.713 789.485 371.163 790.622 372.407C791.759 373.651 793.169 374.661 794.761 375.37C796.119 376.024 797.652 376.314 799.182 376.208C799.944 376.147 800.679 375.921 801.328 375.549C801.977 375.178 802.52 374.67 802.914 374.069C803.275 373.354 803.442 372.57 803.403 371.783C803.364 370.996 803.12 370.229 802.69 369.547V369.547Z" fill="#E6E6E6"/>
<path d="M333.648 86.8818L356.34 38.8664L362.854 25.0841C363.668 23.3601 358.815 19.3934 358 21.1181L335.308 69.1336L328.795 82.916C327.98 84.64 332.833 88.6066 333.648 86.8819L333.648 86.8818Z" fill="#6C63FF"/>
<path d="M692.119 89.2387C703.783 89.2387 713.239 79.7832 713.239 68.1194C713.239 56.4555 703.783 47 692.119 47C680.455 47 671 56.4555 671 68.1194C671 79.7832 680.455 89.2387 692.119 89.2387Z" fill="#6C63FF"/>
<path d="M690.913 78C690.332 78 689.76 77.8803 689.24 77.6502C688.721 77.4202 688.269 77.0862 687.921 76.6748L678.749 65.8428C678.454 65.495 678.24 65.0991 678.117 64.6778C677.995 64.2565 677.968 63.818 678.037 63.3874C678.107 62.9567 678.271 62.5424 678.521 62.168C678.771 61.7936 679.102 61.4665 679.494 61.2053C679.887 60.9442 680.334 60.7541 680.81 60.646C681.286 60.5378 681.781 60.5137 682.267 60.575C682.753 60.6363 683.221 60.7818 683.644 61.0033C684.066 61.2247 684.436 61.5177 684.73 61.8656L684.733 61.8682L690.733 68.9542L706.146 48.4786C706.418 48.1161 706.768 47.8046 707.176 47.562C707.584 47.3194 708.042 47.1504 708.524 47.0647C709.006 46.9791 709.502 46.9784 709.985 47.0628C710.467 47.1471 710.926 47.3148 711.335 47.5563C711.744 47.7978 712.095 48.1084 712.368 48.4702C712.642 48.832 712.832 49.238 712.928 49.6649C713.024 50.0919 713.024 50.5315 712.928 50.9585C712.832 51.3855 712.642 51.7915 712.369 52.1534L694.025 76.5249C693.693 76.9657 693.247 77.3296 692.723 77.5861C692.2 77.8425 691.615 77.9841 691.017 77.999C690.982 77.9994 690.947 78 690.913 78Z" fill="#1CF818"/>
<path d="M342.031 33.3787L359.466 17.9534C359.99 17.3938 360.595 16.9229 361.257 16.5594C362 16.2559 362.295 16.8664 362.522 17.5032C363.064 19.3412 363.496 21.2169 363.815 23.1196L366.305 34.3164C366.618 35.722 368.687 34.9089 368.377 33.5165L366.207 23.7644L365.123 18.8884C364.816 17.5069 364.595 15.8971 363.541 14.9078C361.326 12.8295 358.705 15.7331 357.008 17.2344L349.416 23.9518L340.839 31.54C339.758 32.4965 340.942 34.3425 342.031 33.3787Z" fill="#6C63FF"/>
</g>
<defs>
<filter id="filter0_d_4_2" x="95" y="60" width="607" height="409" filterUnits="userSpaceOnUse" color-interpolation-filters="sRGB">
<feFlood flood-opacity="0" result="BackgroundImageFix"/>
<feColorMatrix in="SourceAlpha" type="matrix" values="0 0 0 0 0 0 0 0 0 0 0 0 0 0 0 0 0 0 127 0" result="hardAlpha"/>
<feOffset dy="4"/>
<feGaussianBlur stdDeviation="2"/>
<feComposite in2="hardAlpha" operator="out"/>
<feColorMatrix type="matrix" values="0 0 0 0 0 0 0 0 0 0 0 0 0 0 0 0 0 0 0.25 0"/>
<feBlend mode="normal" in2="BackgroundImageFix" result="effect1_dropShadow_4_2"/>
<feBlend mode="normal" in="SourceGraphic" in2="effect1_dropShadow_4_2" result="shape"/>
</filter>
<clipPath id="clip0_4_2">
<rect width="923" height="626" fill="white"/>
</clipPath>
</defs>
</svg>
