<svg width="563" height="458" viewBox="0 0 563 458" fill="none" xmlns="http://www.w3.org/2000/svg">
<path d="M562.676 324.121C562.673 355.638 551.493 386.132 531.125 410.182C510.756 434.232 482.519 450.28 451.433 455.471L450.775 455.579L450.266 455.155C441.792 448.087 432.436 442.148 422.433 437.487C428.054 442.639 433.006 448.476 437.174 454.86L438.592 456.991L436.036 457.114C433.831 457.222 431.639 457.275 429.524 457.275C417.091 457.286 404.716 455.57 392.755 452.177C338.421 436.718 280.074 434.075 219.336 444.32C208.921 446.07 198.379 446.95 187.818 446.949C84.2552 446.949 0.000188281 362.677 0.000188281 259.094C-0.0557555 219.6 12.3565 181.097 35.4678 149.072C58.5792 117.047 91.21 93.134 128.709 80.7426L130.001 80.315L130.511 81.5752C134.518 91.0419 137.009 101.081 137.891 111.323C140.381 100.499 141.447 89.3964 141.063 78.2965L141.023 77.1245L142.162 76.8389C157.095 73.1171 172.428 71.2365 187.818 71.2388L189.484 71.2457C201.27 71.2807 212.931 68.8314 223.707 64.0575C234.483 59.2836 244.132 52.2922 252.024 43.5392C264.966 29.3151 280.836 18.0633 298.542 10.5581C316.247 3.05291 335.369 -0.527648 354.59 0.0627695C373.812 0.653187 392.677 5.40057 409.889 13.9783C427.101 22.5561 442.25 34.7606 454.294 49.7522L454.855 50.4464L454.485 51.26C446.705 68.4066 438.23 80.8984 428.113 90.0335C441.096 83.9433 452.979 75.7439 463.281 65.7685L464.61 64.4788L465.543 66.0801C477.414 86.4387 483.665 109.585 483.656 133.152L483.654 133.824C483.652 134.061 483.652 134.3 483.652 134.537C483.652 170.587 497.593 204.756 521.964 228.388C534.782 240.831 544.986 255.708 551.977 272.148C558.968 288.587 562.606 306.257 562.676 324.121Z" fill="#544AF4"/>
</svg>
