<svg width="204" height="167" viewBox="0 0 204 167" fill="none" xmlns="http://www.w3.org/2000/svg">
<g filter="url(#filter0_d_1_72)">
<path d="M199.231 112.46C199.23 123.395 195.351 133.976 188.284 142.32C181.216 150.665 171.419 156.233 160.633 158.034L160.405 158.072L160.228 157.924C157.288 155.472 154.042 153.411 150.571 151.794C152.521 153.582 154.24 155.607 155.686 157.822L156.178 158.562L155.291 158.604C154.526 158.642 153.765 158.66 153.031 158.66C148.717 158.664 144.424 158.069 140.274 156.891C121.421 151.528 101.177 150.61 80.1026 154.165C76.4891 154.772 72.8312 155.077 69.167 155.077C33.2339 155.077 4.00007 125.837 4.00007 89.8975C3.98065 76.1944 8.28732 62.8349 16.3062 51.7232C24.3251 40.6115 35.647 32.3146 48.6581 28.0151L49.1062 27.8668L49.2831 28.304C50.6734 31.5887 51.5377 35.0718 51.8439 38.6255C52.7078 34.8699 53.0778 31.0177 52.9446 27.1664L52.9305 26.7598L53.3257 26.6607C58.5071 25.3693 63.8271 24.7168 69.167 24.7176L69.7451 24.72C73.8345 24.7322 77.8805 23.8823 81.6193 22.2259C85.3582 20.5695 88.706 18.1438 91.4445 15.1067C95.9349 10.1714 101.441 6.26741 107.585 3.66334C113.728 1.05927 120.362 -0.183077 127.032 0.021779C133.701 0.226635 140.247 1.87383 146.219 4.85004C152.191 7.82625 157.447 12.0608 161.626 17.2625L161.821 17.5033L161.692 17.7856C158.993 23.735 156.052 28.0692 152.542 31.2388C157.046 29.1257 161.17 26.2808 164.744 22.8196L165.205 22.3721L165.529 22.9277C169.648 29.9915 171.817 38.0226 171.813 46.1996L171.813 46.4326C171.812 46.5149 171.812 46.5978 171.812 46.6801C171.812 59.1885 176.649 71.0439 185.105 79.2433C189.553 83.5606 193.093 88.7227 195.519 94.4267C197.944 100.131 199.206 106.262 199.231 112.46Z" fill="#2C2C2C"/>
</g>
<defs>
<filter id="filter0_d_1_72" x="0" y="0" width="203.231" height="166.66" filterUnits="userSpaceOnUse" color-interpolation-filters="sRGB">
<feFlood flood-opacity="0" result="BackgroundImageFix"/>
<feColorMatrix in="SourceAlpha" type="matrix" values="0 0 0 0 0 0 0 0 0 0 0 0 0 0 0 0 0 0 127 0" result="hardAlpha"/>
<feOffset dy="4"/>
<feGaussianBlur stdDeviation="2"/>
<feComposite in2="hardAlpha" operator="out"/>
<feColorMatrix type="matrix" values="0 0 0 0 0 0 0 0 0 0 0 0 0 0 0 0 0 0 0.25 0"/>
<feBlend mode="normal" in2="BackgroundImageFix" result="effect1_dropShadow_1_72"/>
<feBlend mode="normal" in="SourceGraphic" in2="effect1_dropShadow_1_72" result="shape"/>
</filter>
</defs>
</svg>
